<mxfile host="app.diagrams.net" modified="2022-02-11T06:10:23.181Z" agent="5.0 (Macintosh; Intel Mac OS X 10_15_3) AppleWebKit/537.36 (KHTML, like Gecko) Chrome/97.0.4692.99 Safari/537.36" etag="4GsvOMMLnKbX_URULmiG" version="16.5.6" type="github">
  <diagram id="tP0htK_A89CHBBAlXfLt" name="Page-1">
    <mxGraphModel dx="1603" dy="1002" grid="1" gridSize="10" guides="1" tooltips="1" connect="1" arrows="1" fold="1" page="1" pageScale="1" pageWidth="2339" pageHeight="3300" math="0" shadow="0">
      <root>
        <mxCell id="0" />
        <mxCell id="1" parent="0" />
        <mxCell id="vU2qt1rbrAaDwHg2KqTE-60" value="" style="rounded=0;whiteSpace=wrap;html=1;shadow=0;dashed=1;sketch=0;fontSize=13;" vertex="1" parent="1">
          <mxGeometry x="30" y="150" width="1640" height="350" as="geometry" />
        </mxCell>
        <mxCell id="vU2qt1rbrAaDwHg2KqTE-56" value="" style="rounded=0;whiteSpace=wrap;html=1;dashed=1;" vertex="1" parent="1">
          <mxGeometry x="1478" y="170" width="162" height="310" as="geometry" />
        </mxCell>
        <mxCell id="vU2qt1rbrAaDwHg2KqTE-27" value="" style="rounded=0;whiteSpace=wrap;html=1;dashed=1;" vertex="1" parent="1">
          <mxGeometry x="932" y="170" width="185.5" height="310" as="geometry" />
        </mxCell>
        <mxCell id="vU2qt1rbrAaDwHg2KqTE-24" value="" style="rounded=0;whiteSpace=wrap;html=1;dashed=1;" vertex="1" parent="1">
          <mxGeometry x="664.5" y="170" width="185.5" height="310" as="geometry" />
        </mxCell>
        <mxCell id="vU2qt1rbrAaDwHg2KqTE-21" value="" style="rounded=0;whiteSpace=wrap;html=1;dashed=1;" vertex="1" parent="1">
          <mxGeometry x="380.5" y="170" width="199.5" height="310" as="geometry" />
        </mxCell>
        <mxCell id="vU2qt1rbrAaDwHg2KqTE-18" value="" style="rounded=0;whiteSpace=wrap;html=1;dashed=1;" vertex="1" parent="1">
          <mxGeometry x="120" y="170" width="180" height="310" as="geometry" />
        </mxCell>
        <mxCell id="vU2qt1rbrAaDwHg2KqTE-1" value="&lt;pre style=&quot;background-color: rgb(255 , 255 , 255) ; font-family: &amp;#34;menlo&amp;#34; ; font-size: 12pt&quot;&gt;&lt;br&gt;&lt;/pre&gt;&lt;pre style=&quot;background-color: rgb(255 , 255 , 255) ; font-family: &amp;#34;menlo&amp;#34; ; font-size: 12pt&quot;&gt;DataLink/Canal&lt;/pre&gt;" style="rounded=0;whiteSpace=wrap;html=1;" vertex="1" parent="1">
          <mxGeometry x="403.5" y="230" width="150" height="70" as="geometry" />
        </mxCell>
        <mxCell id="vU2qt1rbrAaDwHg2KqTE-3" value="&lt;pre style=&quot;background-color: rgb(255 , 255 , 255) ; font-family: &amp;#34;menlo&amp;#34; ; font-size: 12pt&quot;&gt;Kafka&lt;/pre&gt;" style="rounded=0;whiteSpace=wrap;html=1;" vertex="1" parent="1">
          <mxGeometry x="690" y="280" width="130" height="70" as="geometry" />
        </mxCell>
        <mxCell id="vU2qt1rbrAaDwHg2KqTE-4" value="&lt;pre style=&quot;background-color: rgb(255 , 255 , 255) ; font-family: &amp;#34;menlo&amp;#34; ; font-size: 12pt&quot;&gt;Flink|Spark&lt;/pre&gt;" style="rounded=0;whiteSpace=wrap;html=1;" vertex="1" parent="1">
          <mxGeometry x="964.75" y="240" width="120" height="70" as="geometry" />
        </mxCell>
        <mxCell id="vU2qt1rbrAaDwHg2KqTE-7" value="" style="shape=flexArrow;endArrow=classic;html=1;rounded=0;" edge="1" parent="1">
          <mxGeometry width="50" height="50" relative="1" as="geometry">
            <mxPoint x="312" y="269.5" as="sourcePoint" />
            <mxPoint x="372" y="270" as="targetPoint" />
          </mxGeometry>
        </mxCell>
        <mxCell id="vU2qt1rbrAaDwHg2KqTE-10" value="&lt;pre style=&quot;background-color: rgb(255 , 255 , 255) ; font-family: &amp;#34;menlo&amp;#34; ; font-size: 12pt&quot;&gt;业务库&lt;/pre&gt;" style="rounded=0;whiteSpace=wrap;html=1;" vertex="1" parent="1">
          <mxGeometry x="130" y="230" width="150" height="70" as="geometry" />
        </mxCell>
        <mxCell id="vU2qt1rbrAaDwHg2KqTE-15" value="&lt;pre style=&quot;background-color: rgb(255 , 255 , 255) ; font-family: &amp;#34;menlo&amp;#34; ; font-size: 12pt&quot;&gt;埋点数据&lt;/pre&gt;" style="rounded=0;whiteSpace=wrap;html=1;" vertex="1" parent="1">
          <mxGeometry x="130" y="360" width="150" height="70" as="geometry" />
        </mxCell>
        <mxCell id="vU2qt1rbrAaDwHg2KqTE-19" value="&lt;pre style=&quot;background-color: rgb(255 , 255 , 255) ; font-family: &amp;#34;menlo&amp;#34; ; font-size: 12pt&quot;&gt;&lt;br&gt;&lt;/pre&gt;&lt;pre style=&quot;background-color: rgb(255 , 255 , 255) ; font-family: &amp;#34;menlo&amp;#34; ; font-size: 12pt&quot;&gt;Flume/filebeat&lt;/pre&gt;&lt;pre style=&quot;background-color: rgb(255 , 255 , 255) ; font-family: &amp;#34;menlo&amp;#34; ; font-size: 12pt&quot;&gt;/logstash&lt;/pre&gt;" style="rounded=0;whiteSpace=wrap;html=1;" vertex="1" parent="1">
          <mxGeometry x="394" y="340" width="169" height="120" as="geometry" />
        </mxCell>
        <mxCell id="vU2qt1rbrAaDwHg2KqTE-20" value="" style="shape=flexArrow;endArrow=classic;html=1;rounded=0;" edge="1" parent="1">
          <mxGeometry width="50" height="50" relative="1" as="geometry">
            <mxPoint x="312" y="399.5" as="sourcePoint" />
            <mxPoint x="372" y="400" as="targetPoint" />
          </mxGeometry>
        </mxCell>
        <mxCell id="vU2qt1rbrAaDwHg2KqTE-22" value="&lt;font style=&quot;font-size: 19px&quot;&gt;数据源&lt;/font&gt;" style="text;html=1;strokeColor=none;fillColor=none;align=center;verticalAlign=middle;whiteSpace=wrap;rounded=0;dashed=1;" vertex="1" parent="1">
          <mxGeometry x="125" y="180" width="160" height="30" as="geometry" />
        </mxCell>
        <mxCell id="vU2qt1rbrAaDwHg2KqTE-23" value="&lt;span style=&quot;font-size: 19px&quot;&gt;日志同步&lt;/span&gt;" style="text;html=1;strokeColor=none;fillColor=none;align=center;verticalAlign=middle;whiteSpace=wrap;rounded=0;dashed=1;" vertex="1" parent="1">
          <mxGeometry x="393.5" y="180" width="160" height="30" as="geometry" />
        </mxCell>
        <mxCell id="vU2qt1rbrAaDwHg2KqTE-25" value="" style="shape=flexArrow;endArrow=classic;html=1;rounded=0;" edge="1" parent="1">
          <mxGeometry width="50" height="50" relative="1" as="geometry">
            <mxPoint x="590" y="324.5" as="sourcePoint" />
            <mxPoint x="650" y="325" as="targetPoint" />
          </mxGeometry>
        </mxCell>
        <mxCell id="vU2qt1rbrAaDwHg2KqTE-26" value="&lt;span style=&quot;font-size: 19px&quot;&gt;缓存层&lt;/span&gt;" style="text;html=1;strokeColor=none;fillColor=none;align=center;verticalAlign=middle;whiteSpace=wrap;rounded=0;dashed=1;" vertex="1" parent="1">
          <mxGeometry x="674" y="190" width="160" height="30" as="geometry" />
        </mxCell>
        <mxCell id="vU2qt1rbrAaDwHg2KqTE-28" value="" style="shape=flexArrow;endArrow=classic;html=1;rounded=0;" edge="1" parent="1">
          <mxGeometry width="50" height="50" relative="1" as="geometry">
            <mxPoint x="862" y="314.5" as="sourcePoint" />
            <mxPoint x="922" y="315" as="targetPoint" />
          </mxGeometry>
        </mxCell>
        <mxCell id="vU2qt1rbrAaDwHg2KqTE-29" value="&lt;pre style=&quot;background-color: rgb(255 , 255 , 255) ; font-family: &amp;#34;menlo&amp;#34; ; font-size: 12pt&quot;&gt;Redis|Hbase&lt;/pre&gt;" style="shape=parallelogram;perimeter=parallelogramPerimeter;whiteSpace=wrap;html=1;fixedSize=1;dashed=1;fontSize=19;" vertex="1" parent="1">
          <mxGeometry x="965" y="372" width="120" height="90" as="geometry" />
        </mxCell>
        <mxCell id="vU2qt1rbrAaDwHg2KqTE-30" value="&lt;span style=&quot;font-size: 19px&quot;&gt;实时计算&lt;/span&gt;" style="text;html=1;strokeColor=none;fillColor=none;align=center;verticalAlign=middle;whiteSpace=wrap;rounded=0;dashed=1;" vertex="1" parent="1">
          <mxGeometry x="945" y="180" width="160" height="30" as="geometry" />
        </mxCell>
        <mxCell id="vU2qt1rbrAaDwHg2KqTE-31" value="&lt;font size=&quot;1&quot;&gt;&lt;b style=&quot;font-size: 15px&quot;&gt;缓存&lt;/b&gt;&lt;/font&gt;" style="text;html=1;strokeColor=none;fillColor=none;align=center;verticalAlign=middle;whiteSpace=wrap;rounded=0;dashed=1;fontSize=19;" vertex="1" parent="1">
          <mxGeometry x="1000" y="372" width="60" height="30" as="geometry" />
        </mxCell>
        <mxCell id="vU2qt1rbrAaDwHg2KqTE-34" value="&lt;pre style=&quot;background-color: rgb(255 , 255 , 255) ; font-family: &amp;#34;menlo&amp;#34; ; font-size: 12pt&quot;&gt;&lt;b&gt;binlog解析&lt;/b&gt;&lt;/pre&gt;" style="text;html=1;strokeColor=none;fillColor=none;align=center;verticalAlign=middle;whiteSpace=wrap;rounded=0;dashed=1;fontSize=19;" vertex="1" parent="1">
          <mxGeometry x="435.25" y="239" width="90" height="30" as="geometry" />
        </mxCell>
        <mxCell id="vU2qt1rbrAaDwHg2KqTE-35" value="&lt;pre style=&quot;background-color: rgb(255 , 255 , 255) ; font-family: &amp;#34;menlo&amp;#34; ; font-size: 12pt&quot;&gt;&lt;pre style=&quot;font-family: &amp;#34;menlo&amp;#34; ; font-size: 12pt&quot;&gt;&lt;b&gt;日志引擎&lt;/b&gt;&lt;/pre&gt;&lt;/pre&gt;" style="text;html=1;strokeColor=none;fillColor=none;align=center;verticalAlign=middle;whiteSpace=wrap;rounded=0;dashed=1;fontSize=19;" vertex="1" parent="1">
          <mxGeometry x="433.5" y="350" width="90" height="30" as="geometry" />
        </mxCell>
        <mxCell id="vU2qt1rbrAaDwHg2KqTE-36" value="" style="endArrow=classic;html=1;rounded=0;fontSize=15;endFill=0;" edge="1" parent="1">
          <mxGeometry width="50" height="50" relative="1" as="geometry">
            <mxPoint x="1001" y="370" as="sourcePoint" />
            <mxPoint x="1001" y="310" as="targetPoint" />
          </mxGeometry>
        </mxCell>
        <mxCell id="vU2qt1rbrAaDwHg2KqTE-37" value="" style="endArrow=classic;html=1;rounded=0;fontSize=15;endFill=0;entryX=0.4;entryY=-0.033;entryDx=0;entryDy=0;entryPerimeter=0;" edge="1" parent="1" target="vU2qt1rbrAaDwHg2KqTE-31">
          <mxGeometry width="50" height="50" relative="1" as="geometry">
            <mxPoint x="1024.25" y="310" as="sourcePoint" />
            <mxPoint x="1024.25" y="360" as="targetPoint" />
          </mxGeometry>
        </mxCell>
        <mxCell id="vU2qt1rbrAaDwHg2KqTE-38" value="&lt;font size=&quot;1&quot;&gt;&lt;span style=&quot;font-size: 15px&quot;&gt;多流join&lt;/span&gt;&lt;/font&gt;" style="text;html=1;strokeColor=none;fillColor=none;align=center;verticalAlign=middle;whiteSpace=wrap;rounded=0;dashed=1;fontSize=19;" vertex="1" parent="1">
          <mxGeometry x="1027" y="322" width="60" height="30" as="geometry" />
        </mxCell>
        <mxCell id="vU2qt1rbrAaDwHg2KqTE-39" value="" style="rounded=0;whiteSpace=wrap;html=1;dashed=1;" vertex="1" parent="1">
          <mxGeometry x="1200" y="170" width="185.5" height="310" as="geometry" />
        </mxCell>
        <mxCell id="vU2qt1rbrAaDwHg2KqTE-40" value="&lt;pre style=&quot;background-color: rgb(255 , 255 , 255) ; font-family: &amp;#34;menlo&amp;#34; ; font-size: 12pt&quot;&gt;&lt;pre style=&quot;font-family: &amp;#34;menlo&amp;#34; ; font-size: 12pt&quot;&gt;Redis|Hbase|Es&lt;/pre&gt;&lt;pre style=&quot;font-family: &amp;#34;menlo&amp;#34; ; font-size: 12pt&quot;&gt;tableStore&lt;/pre&gt;&lt;/pre&gt;" style="rounded=0;whiteSpace=wrap;html=1;" vertex="1" parent="1">
          <mxGeometry x="1224.13" y="240" width="135.87" height="60" as="geometry" />
        </mxCell>
        <mxCell id="vU2qt1rbrAaDwHg2KqTE-41" value="" style="shape=flexArrow;endArrow=classic;html=1;rounded=0;" edge="1" parent="1">
          <mxGeometry width="50" height="50" relative="1" as="geometry">
            <mxPoint x="1130" y="314.5" as="sourcePoint" />
            <mxPoint x="1190" y="315" as="targetPoint" />
          </mxGeometry>
        </mxCell>
        <mxCell id="vU2qt1rbrAaDwHg2KqTE-43" value="&lt;span style=&quot;font-size: 19px&quot;&gt;存储系统&lt;/span&gt;" style="text;html=1;strokeColor=none;fillColor=none;align=center;verticalAlign=middle;whiteSpace=wrap;rounded=0;dashed=1;" vertex="1" parent="1">
          <mxGeometry x="1213" y="180" width="160" height="30" as="geometry" />
        </mxCell>
        <mxCell id="vU2qt1rbrAaDwHg2KqTE-48" value="&lt;pre style=&quot;background-color: rgb(255 , 255 , 255) ; font-family: &amp;#34;menlo&amp;#34; ; font-size: 12pt&quot;&gt;&lt;pre style=&quot;font-family: &amp;#34;menlo&amp;#34; ; font-size: 12pt&quot;&gt;kudu|Tidb&lt;/pre&gt;&lt;/pre&gt;" style="rounded=0;whiteSpace=wrap;html=1;" vertex="1" parent="1">
          <mxGeometry x="1224.37" y="356" width="135.63" height="50" as="geometry" />
        </mxCell>
        <mxCell id="vU2qt1rbrAaDwHg2KqTE-49" value="" style="shape=flexArrow;endArrow=classic;html=1;rounded=0;" edge="1" parent="1">
          <mxGeometry width="50" height="50" relative="1" as="geometry">
            <mxPoint x="1410" y="274.5" as="sourcePoint" />
            <mxPoint x="1470" y="275" as="targetPoint" />
          </mxGeometry>
        </mxCell>
        <mxCell id="vU2qt1rbrAaDwHg2KqTE-50" value="推荐引擎&lt;br&gt;搜索引擎" style="shape=tape;whiteSpace=wrap;html=1;rounded=1;dashed=1;fontSize=15;" vertex="1" parent="1">
          <mxGeometry x="1501" y="225" width="120" height="100" as="geometry" />
        </mxCell>
        <mxCell id="vU2qt1rbrAaDwHg2KqTE-51" value="" style="shape=flexArrow;endArrow=classic;html=1;rounded=0;" edge="1" parent="1">
          <mxGeometry width="50" height="50" relative="1" as="geometry">
            <mxPoint x="1410" y="382.5" as="sourcePoint" />
            <mxPoint x="1470" y="383" as="targetPoint" />
          </mxGeometry>
        </mxCell>
        <mxCell id="vU2qt1rbrAaDwHg2KqTE-52" value="准实时查询" style="shape=tape;whiteSpace=wrap;html=1;rounded=1;dashed=1;fontSize=15;" vertex="1" parent="1">
          <mxGeometry x="1501" y="337" width="120" height="100" as="geometry" />
        </mxCell>
        <mxCell id="vU2qt1rbrAaDwHg2KqTE-53" value="&lt;font size=&quot;1&quot;&gt;&lt;b style=&quot;font-size: 15px&quot;&gt;实时查询&lt;/b&gt;&lt;/font&gt;" style="text;html=1;strokeColor=none;fillColor=none;align=center;verticalAlign=middle;whiteSpace=wrap;rounded=0;dashed=1;fontSize=19;" vertex="1" parent="1">
          <mxGeometry x="1523" y="220" width="70" height="30" as="geometry" />
        </mxCell>
        <mxCell id="vU2qt1rbrAaDwHg2KqTE-54" value="&lt;font size=&quot;1&quot;&gt;&lt;span style=&quot;font-size: 13px&quot;&gt;impala/Presto&lt;/span&gt;&lt;/font&gt;" style="text;html=1;strokeColor=none;fillColor=none;align=center;verticalAlign=middle;whiteSpace=wrap;rounded=0;dashed=1;fontSize=19;" vertex="1" parent="1">
          <mxGeometry x="1402" y="339" width="70" height="30" as="geometry" />
        </mxCell>
        <mxCell id="vU2qt1rbrAaDwHg2KqTE-57" value="&lt;span style=&quot;font-size: 19px&quot;&gt;线上服务引擎&lt;/span&gt;" style="text;html=1;strokeColor=none;fillColor=none;align=center;verticalAlign=middle;whiteSpace=wrap;rounded=0;dashed=1;" vertex="1" parent="1">
          <mxGeometry x="1475" y="180" width="160" height="30" as="geometry" />
        </mxCell>
        <mxCell id="vU2qt1rbrAaDwHg2KqTE-58" value="&lt;pre style=&quot;background-color: rgb(255 , 255 , 255) ; font-family: &amp;#34;menlo&amp;#34; ; font-size: 12pt&quot;&gt;简单业务处理场景，&lt;/pre&gt;&lt;pre style=&quot;background-color: rgb(255 , 255 , 255) ; font-family: &amp;#34;menlo&amp;#34; ; font-size: 12pt&quot;&gt;不会涉及太多流join与&lt;/pre&gt;&lt;pre style=&quot;background-color: rgb(255 , 255 , 255) ; font-family: &amp;#34;menlo&amp;#34; ; font-size: 12pt&quot;&gt;各维度历史数据聚合场景&lt;/pre&gt;" style="shape=document;whiteSpace=wrap;html=1;boundedLbl=1;rounded=1;dashed=1;fontSize=13;" vertex="1" parent="1">
          <mxGeometry x="1731" y="210" width="220" height="150" as="geometry" />
        </mxCell>
        <mxCell id="vU2qt1rbrAaDwHg2KqTE-59" value="" style="html=1;shadow=0;dashed=0;align=center;verticalAlign=middle;shape=mxgraph.arrows2.jumpInArrow;dy=15;dx=38;arrowHead=80;rounded=1;fontSize=13;rotation=-180;sketch=0;" vertex="1" parent="1">
          <mxGeometry x="1646" y="253" width="80" height="80" as="geometry" />
        </mxCell>
        <mxCell id="vU2qt1rbrAaDwHg2KqTE-61" value="&lt;font style=&quot;font-size: 23px&quot;&gt;&lt;b&gt;实&lt;br&gt;时&lt;br&gt;方&lt;br&gt;案&lt;/b&gt;&lt;/font&gt;" style="text;html=1;strokeColor=none;fillColor=none;align=center;verticalAlign=middle;whiteSpace=wrap;rounded=0;shadow=0;dashed=1;sketch=0;fontSize=13;" vertex="1" parent="1">
          <mxGeometry x="50" y="233" width="40" height="180" as="geometry" />
        </mxCell>
      </root>
    </mxGraphModel>
  </diagram>
</mxfile>
